PathFileType	4	(X/Y/Z)	C:/Users/opensim2020/Desktop/walking_exp_matlab/subject01_walking14_straight_02.trc	
DataRate	CameraRate	NumFrames	NumMarkers	Units	OrigDataRate	OrigDataStartFrame	OrigNumFrames	
100.00	100.00	5	42	mm	100.00	1193	125	
Frame#	Time	LFHD			RFHD			LBHD			RBHD			C7			T10			CLAV			STRN			RBAK			LSHO			LUPA			LELB			LFRM			LWRA			LWRB			LFIN			RSHO			RUPA			RELB			RFRM			RWRA			RWRB			RFIN			LASI			RASI			LPSI			RPSI			LTHI			LKNE			LTIB			LANK			LHEE			LTOE			RTHI			RKNE			RTIB			RANK			RHEE			RTOE			*39			*40			*41			
		X1	Y1	Z1	X2	Y2	Z2	X3	Y3	Z3	X4	Y4	Z4	X5	Y5	Z5	X6	Y6	Z6	X7	Y7	Z7	X8	Y8	Z8	X9	Y9	Z9	X10	Y10	Z10	X11	Y11	Z11	X12	Y12	Z12	X13	Y13	Z13	X14	Y14	Z14	X15	Y15	Z15	X16	Y16	Z16	X17	Y17	Z17	X18	Y18	Z18	X19	Y19	Z19	X20	Y20	Z20	X21	Y21	Z21	X22	Y22	Z22	X23	Y23	Z23	X24	Y24	Z24	X25	Y25	Z25	X26	Y26	Z26	X27	Y27	Z27	X28	Y28	Z28	X29	Y29	Z29	X30	Y30	Z30	X31	Y31	Z31	X32	Y32	Z32	X33	Y33	Z33	X34	Y34	Z34	X35	Y35	Z35	X36	Y36	Z36	X37	Y37	Z37	X38	Y38	Z38	X39	Y39	Z39	X40	Y40	Z40	X41	Y41	Z41	X42	Y42	Z42	

47	0.460	-1019.84125	373.48663	1662.88208	-1122.24805	321.63455	1665.49402	-1068.90479	480.34909	1622.73572	-1177.49817	428.79831	1624.52026	-1088.03333	518.40723	1435.60388	-1091.79297	577.83276	1144.60425	-1087.02649	375.73526	1357.38525	-1084.72473	346.52155	1200.88745	-1159.91870	588.95013	1248.31323	-927.32373	434.81772	1395.13477	-834.78149	463.26193	1216.44324	-824.48273	465.13965	1061.50342	-814.33636	369.20065	990.22668	-844.97137	240.01367	951.28833	-823.91699	277.47549	910.28821	-815.45990	197.54767	888.46661	-1236.52991	440.38867	1397.59912	-1329.88208	541.68079	1214.26624	-1332.64551	559.61316	1091.07068	-1364.72021	566.25909	972.61145	-1350.51660	522.34027	835.90594	-1385.34351	566.19257	850.18365	-1388.31482	553.48187	763.33282	-983.46790	418.13141	928.69995	-1201.85999	410.46835	934.04242	-1045.52222	600.54114	948.92999	-1189.80664	592.61633	946.49457	-944.47760	511.19241	600.44891	-958.31470	555.16559	469.99417	-958.75934	649.24316	303.06583	-1015.41852	724.32880	98.00226	-1069.54602	773.53821	80.45941	-1006.94299	588.66052	37.09151	-1273.96252	370.61826	616.20300	-1249.50671	308.54959	472.00555	-1267.12708	329.20764	298.64264	-1230.13171	306.50336	87.84212	-1179.31848	344.31335	38.85816	-1233.05762	164.19447	74.27843	-1105.30005	338.70822	1700.10266	-3101.97827	1973.17712	1023.35559	-3140.80615	2012.50000	1022.07874 
48	0.470	-1021.57330	360.36099	1661.77966	-1123.90222	308.11441	1663.98328	-1070.73462	466.99475	1621.44250	-1179.27661	415.18835	1622.98462	-1089.54639	505.38199	1434.37097	-1093.26880	564.50970	1143.20215	-1088.34753	362.62839	1356.05933	-1085.63647	333.36719	1199.62256	-1161.18335	575.74866	1246.96887	-928.84442	421.64658	1394.31201	-835.61707	449.16614	1216.03552	-824.47693	449.54422	1061.29541	-814.74347	351.70770	993.17328	-846.21277	221.65451	958.82489	-824.98828	257.41251	916.45233	-817.12402	176.57249	897.77203	-1237.88660	427.03653	1396.13513	-1330.86560	529.51874	1213.30554	-1333.38562	548.18549	1090.45190	-1365.58203	556.92224	972.36920	-1351.53760	515.61407	834.63470	-1386.40967	559.26331	850.10071	-1389.65601	548.25616	762.92017	-983.61182	404.73764	927.69226	-1202.16418	395.55215	933.17841	-1047.36401	586.65350	947.56934	-1191.44727	577.92480	945.28607	-945.05066	501.81503	600.39203	-958.54211	547.83203	470.37753	-958.49133	644.29041	304.88431	-1015.00250	723.05829	100.91243	-1068.55347	772.37128	84.29894	-1006.85449	588.49255	36.75876	-1275.91650	360.20291	613.29327	-1249.42200	293.88559	471.65076	-1268.27417	306.47086	297.92914	-1232.02710	273.59586	88.07721	-1181.75854	309.41971	37.07722	-1232.71924	130.54213	81.10366	-1106.98364	325.26230	1698.58936	-3101.94995	1973.11377	1023.52765	-3140.68018	2012.53516	1022.09070 
49	0.480	-1023.74396	347.02151	1660.79358	-1125.45593	294.55011	1662.52209	-1072.80920	453.65518	1620.21960	-1181.04163	401.61008	1621.46277	-1091.23401	492.37274	1433.04688	-1094.82776	551.09192	1141.66870	-1089.64868	349.50076	1354.73535	-1086.67151	320.12460	1198.48865	-1162.69116	562.47601	1245.44873	-930.52454	408.55444	1393.51453	-836.58844	435.21796	1215.64026	-824.30334	434.76440	1061.06995	-815.26465	334.65149	995.95300	-847.57751	203.97334	965.80713	-826.06482	238.11646	922.24280	-818.48108	156.45947	906.73761	-1239.36414	413.72244	1394.61194	-1331.98560	517.25122	1212.26526	-1334.33215	536.64795	1089.69128	-1366.57568	547.22791	971.97021	-1352.39929	508.23563	833.54297	-1387.42871	551.76770	849.85901	-1390.90063	542.08075	762.39557	-983.84308	390.96399	926.54883	-1202.37793	380.44946	932.34308	-1049.20386	572.59528	946.11572	-1193.23926	562.77161	943.97198	-945.55505	491.94489	600.21674	-958.76392	539.80560	470.72559	-958.17108	638.79773	306.76199	-1014.04633	721.02570	103.76505	-1067.40869	771.04431	88.49085	-1006.69006	588.49573	36.94838	-1278.67200	350.13641	610.38361	-1249.41858	278.79477	471.32147	-1269.35291	284.76233	297.70508	-1233.15210	243.83211	88.88106	-1183.62012	277.40717	35.86636	-1232.06567	100.28162	87.20560	-1108.60950	311.85553	1697.07141	-3101.97388	1973.19934	1023.55884	-3140.74023	2012.49475	1022.12225 
50	0.490	-1025.44849	333.89151	1659.36768	-1127.22034	281.08984	1660.94275	-1074.87891	440.33072	1618.94495	-1183.08618	387.96588	1620.02625	-1093.00781	479.47137	1431.67920	-1096.24231	537.38928	1139.95520	-1091.16797	336.48212	1353.49585	-1087.88318	306.78104	1197.37097	-1164.30139	549.16254	1243.75928	-932.29785	395.62625	1392.73694	-837.58545	421.00055	1215.29688	-824.25769	420.04123	1061.01514	-815.78088	318.06546	998.54230	-848.86401	186.95012	972.26123	-827.00555	219.44640	927.76056	-819.86700	137.26218	915.25378	-1240.82178	400.47653	1392.90833	-1333.29114	504.87454	1211.11389	-1335.45850	525.01965	1088.79895	-1367.79224	537.14221	971.36121	-1353.73901	499.98090	832.42291	-1388.54419	543.40479	849.37769	-1392.50977	534.85956	761.82904	-984.15704	377.07938	925.50330	-1202.57703	365.05927	931.49011	-1051.08008	558.27307	944.69867	-1195.26294	547.35089	942.78644	-946.02063	481.54367	599.95648	-958.99084	531.05878	471.01022	-957.78241	632.85974	308.74945	-1012.87274	719.04633	106.97759	-1066.01184	769.41620	93.13496	-1006.53583	588.24225	36.95206	-1280.81165	338.96207	608.09540	-1249.86865	264.00146	471.23123	-1269.36218	264.31827	297.27203	-1233.66003	217.25259	89.54472	-1183.98840	249.77713	35.81777	-1231.15894	73.27144	91.72772	-1110.60425	298.19104	1695.77136	-3102.06787	1973.12195	1023.59161	-3140.79590	2012.52014	1022.01636 
51	0.500	-1027.55371	320.65720	1658.36035	-1129.02832	267.56595	1659.42261	-1077.16919	427.07281	1617.79895	-1185.12634	374.31921	1618.59448	-1094.92444	466.60007	1430.24243	-1097.76282	523.63690	1138.23926	-1092.86926	323.38309	1352.30627	-1089.22168	293.34940	1196.35144	-1166.03479	535.74713	1241.91968	-934.07538	382.82547	1391.96423	-838.86975	407.09848	1214.86060	-824.54169	405.31815	1060.85205	-816.30145	302.09338	1000.97375	-850.12714	170.66782	978.29968	-827.84650	201.60309	932.92224	-821.20007	118.92989	923.12463	-1242.46997	387.36978	1391.32471	-1334.84314	492.37088	1209.88123	-1336.84229	513.22626	1087.78418	-1369.34106	526.77692	970.66913	-1355.44299	490.87656	831.29907	-1390.15515	534.23303	848.71613	-1393.91907	526.71332	761.02863	-984.45227	363.01407	924.54163	-1202.93616	349.38812	930.37720	-1053.04517	543.58911	943.33832	-1197.41345	531.75317	941.72589	-946.33398	470.33902	599.66632	-959.15656	521.54474	471.31094	-957.27765	626.40125	310.92667	-1011.68134	716.93011	110.85079	-1064.50073	767.56555	98.09502	-1006.46417	587.76978	36.88452	-1282.04749	325.89160	606.72888	-1250.70947	249.54660	470.67538	-1269.88159	245.83673	296.59677	-1233.56152	193.91545	89.73100	-1183.75720	225.16609	35.55050	-1229.93372	49.73746	94.68150	-1112.45911	284.67316	1694.27869	-3101.88062	1973.13757	1023.85748	-3140.76929	2012.48804	1022.10687 
